<svg xmlns="http://www.w3.org/2000/svg" width="0" height="0">
    <defs>
        <svg id="account" xmlns="http://www.w3.org/2000/svg">
            <path
                d="M12 0c-6.627 0-12 5.373-12 12s5.373 12 12 12 12-5.373 12-12-5.373-12-12-12zm7.753 18.305c-.261-.586-.789-.991-1.871-1.241-2.293-.529-4.428-.993-3.393-2.945 3.145-5.942.833-9.119-2.489-9.119-3.388 0-5.644 3.299-2.489 9.119 1.066 1.964-1.148 2.427-3.393 2.945-1.084.25-1.608.658-1.867 1.246-1.405-1.723-2.251-3.919-2.251-6.31 0-5.514 4.486-10 10-10s10 4.486 10 10c0 2.389-.845 4.583-2.247 6.305z" />
        </svg>
        <svg id="heart" clip-rule="evenodd" fill-rule="evenodd" stroke-linejoin="round"
            stroke-miterlimit="2"
            viewBox="0 0 24 24" xmlns="http://www.w3.org/2000/svg">
            <path
                d="m12 5.72c-2.624-4.517-10-3.198-10 2.461 0 3.725 4.345 7.727 9.303 12.54.194.189.446.283.697.283s.503-.094.697-.283c4.977-4.831 9.303-8.814 9.303-12.54 0-5.678-7.396-6.944-10-2.461z"
                fill-rule="nonzero" />
        </svg>
        <svg id="cart" xmlns="http://www.w3.org/2000/svg">
            <path
                d="M10 20.5c0 .829-.672 1.5-1.5 1.5s-1.5-.671-1.5-1.5c0-.828.672-1.5 1.5-1.5s1.5.672 1.5 1.5zm3.5-1.5c-.828 0-1.5.671-1.5 1.5s.672 1.5 1.5 1.5 1.5-.671 1.5-1.5c0-.828-.672-1.5-1.5-1.5zm6.304-17l-3.431 14h-2.102l2.541-11h-16.812l4.615 13h13.239l3.474-14h2.178l.494-2h-4.196z" />
        </svg>
    </defs>
</svg>